<svg xmlns="http://www.w3.org/2000/svg" width="32" height="32" viewBox="0 0 32 32" fill="none">
 <path d="M4.5 6.5c4.8-1.7 8.7-.8 11.5 1.8v19c-2.8-2.6-6.7-3.5-11.5-1.8v-19Z" fill="#F8E5EB" stroke="#587560" stroke-width="1.8" stroke-linejoin="round"/>
 <path d="M27.5 6.5c-4.8-1.7-8.7-.8-11.5 1.8v19c2.8-2.6 6.7-3.5 11.5-1.8v-19Z" fill="#F5F0DE" stroke="#587560" stroke-width="1.8" stroke-linejoin="round"/>
 <path d="M16 8.3v19M7.7 12h5.2M7.7 15.4h4.2M20.2 18h4.3" stroke="#8C9D7A" stroke-width="1.4" stroke-linecap="round"/>
 <path d="m22.2 10.6.7 1.5 1.6.2-1.2 1.1.3 1.6-1.4-.8-1.5.8.3-1.6-1.2-1.1 1.7-.2.7-1.5Z" fill="#DDAF55" stroke="#A98745" stroke-width=".7" stroke-linejoin="round"/>
 <path d="M9 4.5v4.3l1.8-1.2 1.8 1.2V5" fill="#D0B7D8" stroke="#776587" stroke-width="1" stroke-linejoin="round"/>
</svg>
