<svg xmlns="http://www.w3.org/2000/svg" width="128" height="128" viewBox="0 0 128 128"><circle cx="64" cy="64" r="59" fill="#faf3e5"/><ellipse cx="64" cy="111" rx="34" ry="5" fill="#decbb2" opacity=".3"/><g stroke="#886b50" stroke-width="3" stroke-linecap="round" stroke-linejoin="round"><path d="M64 39q-19-14-43-6v66q24-8 43 6 19-14 43-6V33q-24-8-43 6Z" fill="#fff2d2"/><path d="M64 39v66M33 50l18 3m-18 11 18 3m-18 11 18 3m26-28 18-3m-18 17 18-3m-18 17 18-3" fill="none"/><path d="m91 12 3 8 9 3-9 3-3 8-3-8-9-3 9-3Z" fill="#efc961"/></g></svg>