<svg xmlns="http://www.w3.org/2000/svg" width="128" height="128" viewBox="0 0 128 128"><circle cx="64" cy="64" r="59" fill="#faf3e5"/><ellipse cx="64" cy="111" rx="34" ry="5" fill="#decbb2" opacity=".3"/><g stroke="#886b50" stroke-width="3" stroke-linecap="round" stroke-linejoin="round"><path d="M104 56q0-33-42-31-42 2-42 40 0 37 39 39 23 1 13-17-7-14 15-14 18 0 17-17Z" fill="#f0d6a7"/><circle cx="42" cy="52" r="8" fill="#a7c6b0"/><circle cx="66" cy="43" r="8" fill="#e9a7a2"/><circle cx="86" cy="54" r="7" fill="#adbed9"/><circle cx="39" cy="79" r="7" fill="#efc46e"/><path d="m78 103 24-55 7 3-20 56Z" fill="#ba9776"/><path d="m102 48 4-18q17 12 3 21" fill="#96b9c9"/></g></svg>